<svg width="17" height="16" viewBox="0 0 17 16" fill="none" xmlns="http://www.w3.org/2000/svg">
<path d="M8.00603 1.33331C5.42409 1.33331 3.33585 3.41998 3.33585 5.99998C3.33585 9.49998 8.00603 14.6666 8.00603 14.6666C8.00603 14.6666 12.6762 9.49998 12.6762 5.99998C12.6762 3.41998 10.588 1.33331 8.00603 1.33331ZM8.00603 7.66665C7.56367 7.66665 7.13943 7.49105 6.82663 7.17849C6.51384 6.86593 6.33811 6.44201 6.33811 5.99998C6.33811 5.55795 6.51384 5.13403 6.82663 4.82147C7.13943 4.50891 7.56367 4.33331 8.00603 4.33331C8.4484 4.33331 8.87264 4.50891 9.18543 4.82147C9.49823 5.13403 9.67396 5.55795 9.67396 5.99998C9.67396 6.44201 9.49823 6.86593 9.18543 7.17849C8.87264 7.49105 8.4484 7.66665 8.00603 7.66665V7.66665Z" fill="#47484C"/>
</svg>
