<?xml version="1.0" standalone="no"?>
<!DOCTYPE svg PUBLIC "-//W3C//DTD SVG 20010904//EN"
 "http://www.w3.org/TR/2001/REC-SVG-20010904/DTD/svg10.dtd">
<svg version="1.0" xmlns="http://www.w3.org/2000/svg"
 width="2000.000000pt" height="2000.000000pt" viewBox="0 0 2000.000000 2000.000000"
 preserveAspectRatio="xMidYMid meet">
<metadata>
Created by potrace 1.11, written by Peter Selinger 2001-2013
</metadata>
<g transform="translate(0.000000,2000.000000) scale(0.100000,-0.100000)"
fill="#000000" stroke="none">
<path d="M9478 19995 c-2 -2 -82 -6 -178 -9 -172 -7 -244 -11 -385 -22 -38 -3
-77 -6 -85 -6 -8 0 -55 -4 -105 -8 -49 -5 -126 -12 -170 -16 -44 -3 -87 -8
-95 -9 -8 -2 -44 -6 -80 -10 -36 -4 -72 -8 -80 -10 -9 -2 -43 -6 -75 -10 -68
-8 -111 -14 -140 -19 -11 -2 -40 -7 -65 -10 -39 -5 -106 -17 -175 -30 -11 -2
-40 -7 -65 -12 -25 -4 -47 -8 -50 -9 -3 -1 -25 -5 -50 -9 -25 -4 -70 -14 -100
-21 -30 -8 -68 -16 -85 -19 -16 -3 -102 -24 -190 -46 -642 -165 -1182 -420
-1528 -723 -244 -213 -418 -453 -510 -702 -27 -74 -51 -156 -49 -166 1 -4 -3
-22 -9 -40 -17 -60 -23 -140 -22 -314 1 -93 2 -644 3 -1222 l1 -1053 2433 0
2433 0 0 -344 -1 -344 -3560 0 c-1959 0 -3589 -3 -3623 -6 -34 -4 -70 -8 -80
-10 -10 -2 -52 -9 -93 -16 -158 -26 -291 -60 -450 -116 -117 -40 -322 -128
-360 -154 -14 -10 -45 -28 -70 -40 -49 -24 -289 -180 -311 -202 -8 -8 -43 -36
-79 -63 -96 -73 -334 -314 -434 -440 -270 -340 -481 -738 -639 -1205 -46 -135
-123 -398 -133 -454 -3 -16 -7 -32 -9 -36 -2 -4 -7 -22 -10 -41 -3 -19 -8 -42
-11 -51 -3 -9 -7 -25 -9 -35 -2 -10 -8 -38 -14 -63 -29 -128 -86 -484 -105
-655 -3 -22 -7 -65 -11 -95 -9 -82 -13 -126 -20 -225 -3 -49 -8 -103 -10 -120
-26 -197 -26 -1242 0 -1550 2 -27 7 -86 10 -130 3 -44 8 -98 10 -120 3 -22 7
-67 10 -100 7 -83 16 -165 21 -195 2 -14 6 -50 9 -80 3 -30 8 -64 10 -75 2
-11 7 -42 10 -70 6 -44 45 -277 60 -360 63 -341 170 -720 293 -1040 83 -216
211 -483 309 -644 34 -57 63 -107 63 -111 0 -5 3 -10 8 -12 4 -1 30 -37 57
-78 111 -165 289 -371 457 -526 168 -156 508 -376 683 -442 17 -6 55 -21 85
-32 133 -51 285 -93 415 -115 17 -3 44 -8 60 -12 17 -4 462 -8 990 -10 l960
-4 1 1258 c1 1117 4 1417 19 1488 2 11 7 43 10 70 3 28 10 75 15 105 5 30 12
70 15 88 3 19 15 73 26 120 11 48 23 97 25 110 2 12 20 75 40 140 198 654 573
1160 1089 1469 107 64 306 163 328 163 7 0 17 4 22 9 35 33 458 149 610 167
22 3 49 7 60 9 11 2 45 7 75 10 30 3 73 8 95 10 133 15 538 17 2840 20 1403 1
2570 5 2595 8 25 4 86 12 135 18 50 6 99 13 110 15 11 3 31 7 45 9 62 10 144
28 250 55 851 216 1452 703 1733 1405 61 152 123 363 142 485 4 25 9 52 10 60
3 18 15 96 20 130 6 37 17 166 21 240 5 108 5 4893 0 4920 -3 14 -8 43 -11 65
-11 86 -48 228 -92 345 -62 167 -181 381 -283 511 -19 24 -42 53 -50 63 -8 11
-35 42 -60 70 -341 381 -834 679 -1479 896 -128 43 -401 122 -471 136 -13 3
-63 14 -110 25 -47 11 -141 31 -210 45 -118 23 -142 28 -207 39 -16 2 -41 6
-58 9 -53 9 -148 23 -205 31 -14 2 -43 6 -65 9 -22 3 -62 8 -90 11 -27 3 -66
7 -85 10 -44 6 -185 19 -310 30 -137 11 -178 14 -285 21 -60 3 -139 8 -175 10
-73 5 -1147 13 -1152 9z m-1953 -1570 c385 -114 638 -457 630 -851 -3 -128 -8
-164 -41 -264 -62 -185 -193 -354 -357 -461 -55 -36 -188 -97 -229 -104 -11
-2 -27 -6 -36 -9 -66 -21 -257 -28 -352 -14 -187 28 -405 153 -531 305 -90
110 -167 277 -187 408 -9 60 -9 246 0 295 22 124 81 269 147 360 133 184 335
314 556 355 113 21 292 12 400 -20z"/>
<path d="M15529 13673 c-1 -703 -2 -1296 -4 -1318 -4 -54 -16 -175 -20 -202
-2 -12 -9 -57 -15 -100 -53 -361 -195 -790 -355 -1068 -286 -501 -645 -824
-1165 -1047 -146 -63 -368 -127 -565 -163 -113 -21 -116 -22 -275 -39 -25 -3
-83 -9 -130 -12 -47 -4 -1244 -8 -2660 -9 -1416 -1 -2609 -5 -2650 -9 -98 -10
-251 -31 -310 -42 -14 -3 -38 -7 -55 -10 -273 -48 -622 -168 -875 -301 -446
-235 -773 -564 -987 -995 -35 -69 -63 -133 -63 -140 0 -8 -4 -18 -9 -23 -15
-16 -81 -222 -111 -350 -34 -142 -66 -350 -76 -490 -9 -133 -12 -4949 -2
-5000 45 -251 84 -376 174 -562 51 -107 196 -342 223 -363 3 -3 24 -27 46 -55
55 -70 237 -251 315 -314 36 -29 74 -60 85 -69 150 -123 493 -320 730 -421 55
-23 109 -46 120 -52 26 -11 174 -65 250 -90 33 -11 69 -24 80 -29 11 -4 70
-22 130 -39 61 -17 124 -35 140 -40 46 -14 236 -60 274 -66 19 -3 37 -8 41
-10 8 -5 366 -73 420 -80 19 -3 46 -7 59 -10 14 -2 61 -9 105 -15 45 -6 92
-13 106 -15 46 -7 105 -14 160 -20 30 -3 72 -8 94 -11 21 -2 64 -6 95 -9 257
-23 294 -25 376 -30 44 -2 134 -7 200 -10 66 -4 165 -9 220 -10 122 -5 851 -5
955 -1 307 13 420 19 595 31 78 6 107 8 230 20 33 4 80 8 105 10 25 2 86 8
135 14 50 6 108 14 130 16 38 5 89 12 145 20 14 2 45 7 70 10 25 3 81 12 125
20 44 8 95 17 113 20 80 13 104 18 212 41 63 14 124 27 135 29 83 17 250 61
420 112 28 8 64 18 80 23 31 8 198 68 315 113 261 101 576 273 775 425 318
244 535 529 639 842 34 102 40 126 52 200 3 19 7 46 10 60 2 14 4 174 3 355
-1 630 -7 2120 -8 2127 -1 4 -1057 7 -2348 7 -1292 0 -2385 1 -2430 1 l-83 0
0 343 0 342 3548 0 c1951 1 3583 4 3627 8 99 9 188 23 280 43 39 9 81 18 95
20 57 11 223 63 344 109 250 94 556 277 776 463 100 85 293 285 383 397 77 95
277 383 277 398 0 3 18 35 40 71 87 142 218 435 325 726 23 61 108 344 120
400 2 8 20 82 39 163 19 82 37 163 40 180 7 43 14 75 20 95 3 9 7 35 11 57 3
22 10 65 15 95 5 30 12 73 15 95 3 22 9 65 15 95 12 75 13 2698 1 2787 -6 37
-12 91 -16 118 -3 28 -7 61 -10 75 -3 14 -7 39 -9 55 -6 40 -35 203 -41 235
-2 14 -7 39 -10 55 -41 215 -133 567 -206 786 -95 287 -255 644 -384 859 -56
93 -218 334 -239 356 -6 6 -27 30 -46 54 -101 126 -248 277 -360 371 -35 30
-73 62 -85 72 -92 82 -434 282 -575 336 -19 7 -57 22 -85 32 -105 41 -321 95
-455 115 -25 4 -471 9 -992 11 l-948 4 -1 -1278z m-2545 -10377 c361 -85 628
-376 675 -736 38 -288 -73 -587 -287 -770 -174 -151 -351 -217 -577 -218 -176
-1 -310 36 -456 124 -327 198 -488 595 -392 969 79 310 356 576 658 631 17 3
48 9 70 13 64 12 234 4 309 -13z"/>
</g>
</svg>
