<svg width="17" height="16" viewBox="0 0 17 16" fill="none" xmlns="http://www.w3.org/2000/svg">
<path d="M10.6747 7.33331C11.7822 7.33331 12.6696 6.43998 12.6696 5.33331C12.6696 4.22665 11.7822 3.33331 10.6747 3.33331C9.56722 3.33331 8.67321 4.22665 8.67321 5.33331C8.67321 6.43998 9.56722 7.33331 10.6747 7.33331ZM5.33736 7.33331C6.44486 7.33331 7.3322 6.43998 7.3322 5.33331C7.3322 4.22665 6.44486 3.33331 5.33736 3.33331C4.22986 3.33331 3.33585 4.22665 3.33585 5.33331C3.33585 6.43998 4.22986 7.33331 5.33736 7.33331ZM5.33736 8.66665C3.78286 8.66665 0.667175 9.44665 0.667175 11V12.6666H10.0076V11C10.0076 9.44665 6.89187 8.66665 5.33736 8.66665ZM10.6747 8.66665C10.4812 8.66665 10.2611 8.67998 10.0276 8.69998C10.8015 9.25998 11.3419 10.0133 11.3419 11V12.6666H15.3449V11C15.3449 9.44665 12.2292 8.66665 10.6747 8.66665Z" fill="#47484C"/>
</svg>
