<svg width="17" height="16" viewBox="0 0 17 16" fill="none" xmlns="http://www.w3.org/2000/svg">
<path d="M6.00451 6.66669H4.67017V8.00002H6.00451V6.66669ZM8.67319 6.66669H7.33885V8.00002H8.67319V6.66669ZM11.3419 6.66669H10.0075V8.00002H11.3419V6.66669ZM12.6762 2.00002H12.009V0.666687H10.6747V2.00002H5.33734V0.666687H4.003V2.00002H3.33583C2.59528 2.00002 2.00817 2.60002 2.00817 3.33335L2.0015 12.6667C2.0015 13.0203 2.14208 13.3594 2.39231 13.6095C2.64255 13.8595 2.98195 14 3.33583 14H12.6762C13.4101 14 14.0106 13.4 14.0106 12.6667V3.33335C14.0106 2.60002 13.4101 2.00002 12.6762 2.00002ZM12.6762 12.6667H3.33583V5.33335H12.6762V12.6667Z" fill="#47484C"/>
</svg>
